<svg width="38" height="37" viewBox="0 0 38 37" fill="none" xmlns="http://www.w3.org/2000/svg">
<path d="M6.13154 35.8472C8.5371 35.8472 10.4872 34.1136 10.4872 31.9751C10.4872 29.8366 8.5371 28.103 6.13154 28.103C3.72597 28.103 1.77588 29.8366 1.77588 31.9751C1.77588 34.1136 3.72597 35.8472 6.13154 35.8472Z" stroke="#222222" stroke-width="2" stroke-linecap="round" stroke-linejoin="round"/>
<path d="M30.087 35.8472C32.4925 35.8472 34.4426 34.1136 34.4426 31.9751C34.4426 29.8366 32.4925 28.103 30.087 28.103C27.6814 28.103 25.7313 29.8366 25.7313 31.9751C25.7313 34.1136 27.6814 35.8472 30.087 35.8472Z" stroke="#222222" stroke-width="2" stroke-linecap="round" stroke-linejoin="round"/>
<path d="M30.0876 28.103H6.13154V1H1.77588" stroke="#222222" stroke-width="2" stroke-linecap="round" stroke-linejoin="round"/>
<path d="M6.13135 4.87134L36.621 6.80718L34.4431 20.3581H6.13135" stroke="#222222" stroke-width="2" stroke-linecap="round" stroke-linejoin="round"/>
</svg>
