<svg width="39" height="39" viewBox="0 0 39 39" fill="none" xmlns="http://www.w3.org/2000/svg">
<path d="M19.6027 37.6653C29.729 37.6653 37.938 29.4575 37.938 19.3326C37.938 9.2078 29.729 1 19.6027 1C9.47644 1 1.26746 9.2078 1.26746 19.3326C1.26746 29.4575 9.47644 37.6653 19.6027 37.6653Z" stroke="#222222" stroke-width="2" stroke-linecap="round" stroke-linejoin="round"/>
<path d="M25.3071 13.2217C24.9381 12.5816 24.4019 12.0539 23.7559 11.6951C23.1099 11.3362 22.3786 11.1598 21.64 11.1847H17.5655C16.4849 11.1847 15.4485 11.6139 14.6844 12.3779C13.9203 13.142 13.491 14.1782 13.491 15.2587C13.491 16.3393 13.9203 17.3755 14.6844 18.1395C15.4485 18.9036 16.4849 19.3328 17.5655 19.3328H21.64C22.7207 19.3328 23.757 19.762 24.5212 20.5261C25.2853 21.2901 25.7146 22.3264 25.7146 23.4069C25.7146 24.4874 25.2853 25.5236 24.5212 26.2877C23.757 27.0517 22.7207 27.4809 21.64 27.4809H17.5655C16.827 27.5058 16.0956 27.3294 15.4497 26.9705C14.8037 26.6117 14.2675 26.084 13.8984 25.4439" stroke="#222222" stroke-width="2" stroke-linecap="round" stroke-linejoin="round"/>
<path d="M19.6023 7.10986V11.1838M19.6023 27.4797V31.5537" stroke="#222222" stroke-width="2" stroke-linecap="round" stroke-linejoin="round"/>
</svg>
