<svg width="42" height="42" viewBox="0 0 42 42" fill="none" xmlns="http://www.w3.org/2000/svg">
<path d="M14.0706 20.6173L18.4367 24.9768L27.1689 16.2578" stroke="#222222" stroke-width="2" stroke-linecap="round" stroke-linejoin="round"/>
<path d="M20.6193 1C25.7186 5.5046 32.3739 7.84998 39.1752 7.53922C40.1654 10.9026 40.4684 14.4304 40.0662 17.913C39.6639 21.3956 38.5647 24.7619 36.8337 27.812C35.1027 30.862 32.7754 33.5335 29.99 35.6677C27.2045 37.8018 24.0179 39.3552 20.6193 40.2353C17.2208 39.3552 14.0341 37.8018 11.2487 35.6677C8.46328 33.5335 6.13594 30.862 4.40497 27.812C2.674 24.7619 1.57474 21.3956 1.17249 17.913C0.770247 14.4304 1.07323 10.9026 2.06345 7.53922C8.86479 7.84998 15.5201 5.5046 20.6193 1" stroke="#222222" stroke-width="2" stroke-linecap="round" stroke-linejoin="round"/>
</svg>
