<svg width="23" height="20" viewBox="0 0 23 20" fill="none" xmlns="http://www.w3.org/2000/svg">
<path d="M12.268 0.210115C12.1235 0.0790761 11.9337 0.00946694 11.7388 0.0160532C11.5439 0.0226394 11.3592 0.104903 11.2239 0.245394C11.0886 0.385886 11.0133 0.573554 11.0141 0.768593C11.0149 0.963632 11.0916 1.1507 11.228 1.29012L19.503 9.25012H0.75C0.551088 9.25012 0.360322 9.32913 0.21967 9.46979C0.0790175 9.61044 0 9.8012 0 10.0001C0 10.199 0.0790175 10.3898 0.21967 10.5304C0.360322 10.6711 0.551088 10.7501 0.75 10.7501H19.502L11.229 18.7091C11.0926 18.8485 11.0159 19.0356 11.0151 19.2306C11.0143 19.4257 11.0896 19.6133 11.2249 19.7538C11.3602 19.8943 11.5449 19.9766 11.7398 19.9832C11.9347 19.9898 12.1245 19.9202 12.269 19.7891L21.697 10.7201C21.7939 10.6268 21.871 10.5149 21.9237 10.3911C21.9764 10.2673 22.0035 10.1342 22.0035 9.99962C22.0035 9.86507 21.9764 9.73192 21.9237 9.60812C21.871 9.48431 21.7939 9.37241 21.697 9.27912L12.269 0.209115L12.268 0.210115Z" fill="white"/>
</svg>
