<svg width="15" height="16" viewBox="0 0 15 16" fill="none" xmlns="http://www.w3.org/2000/svg">
<path d="M13.5942 0.750977H1.40674C1.01611 0.750977 0.684082 0.887695 0.410645 1.16113C0.137207 1.43457 0.000488281 1.7666 0.000488281 2.15723V14.3447C0.000488281 14.7354 0.137207 15.0674 0.410645 15.3408C0.684082 15.6143 1.01611 15.751 1.40674 15.751H13.5942C13.9849 15.751 14.3169 15.6143 14.5903 15.3408C14.8638 15.0674 15.0005 14.7354 15.0005 14.3447V2.15723C15.0005 1.7666 14.8638 1.43457 14.5903 1.16113C14.3169 0.887695 13.9849 0.750977 13.5942 0.750977ZM10.313 3.09473C10.313 2.96777 10.3569 2.86035 10.4448 2.77246C10.5425 2.6748 10.6548 2.62598 10.7817 2.62598H12.6567C12.7837 2.62598 12.8911 2.6748 12.979 2.77246C13.0767 2.86035 13.1255 2.96777 13.1255 3.09473V4.96973C13.1255 5.09668 13.0767 5.20898 12.979 5.30664C12.8911 5.39453 12.7837 5.43848 12.6567 5.43848H10.7817C10.6548 5.43848 10.5425 5.39453 10.4448 5.30664C10.3569 5.20898 10.313 5.09668 10.313 4.96973V3.09473ZM7.50049 5.43848C8.27197 5.43848 8.93115 5.71191 9.47803 6.25879C10.0347 6.80566 10.313 7.46973 10.313 8.25098C10.313 9.02246 10.0396 9.68652 9.49268 10.2432C8.9458 10.79 8.28174 11.0635 7.50049 11.0635C6.729 11.0635 6.06494 10.79 5.5083 10.2432C4.96143 9.69629 4.68799 9.03223 4.68799 8.25098C4.68799 7.47949 4.96143 6.82031 5.5083 6.27344C6.05518 5.7168 6.71924 5.43848 7.50049 5.43848ZM13.1255 13.4072C13.1255 13.5342 13.0767 13.6465 12.979 13.7441C12.8911 13.832 12.7837 13.876 12.6567 13.876H2.34424C2.21729 13.876 2.10498 13.832 2.00732 13.7441C1.91943 13.6465 1.87549 13.5342 1.87549 13.4072V7.31348H2.90088C2.87158 7.45996 2.84717 7.61133 2.82764 7.76758C2.81787 7.92383 2.81299 8.08496 2.81299 8.25098C2.81299 8.89551 2.93506 9.50586 3.1792 10.082C3.42334 10.6484 3.75537 11.1465 4.17529 11.5762C4.60498 11.9961 5.10303 12.3281 5.66943 12.5723C6.24561 12.8164 6.85596 12.9385 7.50049 12.9385C8.14502 12.9385 8.75049 12.8164 9.31689 12.5723C9.89307 12.3281 10.3911 11.9961 10.811 11.5762C11.2407 11.1465 11.5776 10.6484 11.8218 10.082C12.0659 9.50586 12.188 8.89551 12.188 8.25098C12.188 8.09473 12.1782 7.93848 12.1587 7.78223C12.1489 7.61621 12.1294 7.45996 12.1001 7.31348H13.1255V13.4072Z" fill="#A1A1A1"/>
</svg>
