<svg width="16" height="16" viewBox="0 0 16 16" fill="none" xmlns="http://www.w3.org/2000/svg">
<path d="M2.28564 2.50879C3.83252 0.961914 5.6958 0.188477 7.87549 0.188477C10.0552 0.188477 11.9067 0.961914 13.4302 2.50879C14.9771 4.03223 15.7505 5.88379 15.7505 8.06348C15.7505 10.2432 14.9771 12.1064 13.4302 13.6533C11.9067 15.1768 10.0552 15.9385 7.87549 15.9385C7.07861 15.9385 6.32861 15.833 5.62549 15.6221C6.04736 14.8721 6.31689 14.3096 6.43408 13.9346L6.99658 11.7549C7.34814 12.4111 7.98096 12.7393 8.89502 12.7393C10.1606 12.7393 11.1802 12.2354 11.9536 11.2275C12.7505 10.2197 13.1489 8.93066 13.1489 7.36035C13.1489 6.1416 12.6802 5.08691 11.7427 4.19629C10.8052 3.28223 9.60986 2.8252 8.15674 2.8252C6.42236 2.8252 5.05127 3.34082 4.04346 4.37207C3.03564 5.37988 2.53174 6.50488 2.53174 7.74707C2.53174 9.31738 3.0708 10.3252 4.14893 10.7705C4.35986 10.8643 4.50049 10.7939 4.5708 10.5596C4.5708 10.5127 4.58252 10.4072 4.60596 10.2432C4.65283 10.0791 4.68799 9.97363 4.71143 9.92676C4.7583 9.78613 4.72314 9.64551 4.60596 9.50488C4.25439 9.08301 4.07861 8.56738 4.07861 7.95801C4.07861 6.92676 4.43018 6.04785 5.1333 5.32129C5.85986 4.57129 6.79736 4.19629 7.9458 4.19629C8.97705 4.19629 9.78564 4.47754 10.3716 5.04004C10.9575 5.5791 11.2505 6.29395 11.2505 7.18457C11.2505 8.35645 11.0161 9.35254 10.5474 10.1729C10.0786 10.9697 9.48096 11.3682 8.75439 11.3682C8.33252 11.3682 7.99268 11.2275 7.73486 10.9463C7.47705 10.6416 7.39502 10.2783 7.48877 9.85645C7.53564 9.62207 7.61768 9.30566 7.73486 8.90723C7.87549 8.50879 7.98096 8.15723 8.05127 7.85254C8.14502 7.54785 8.19189 7.29004 8.19189 7.0791C8.19189 6.75098 8.09814 6.46973 7.91064 6.23535C7.72314 6.00098 7.46533 5.88379 7.13721 5.88379C6.71533 5.88379 6.35205 6.08301 6.04736 6.48145C5.76611 6.85645 5.62549 7.33691 5.62549 7.92285C5.62549 8.13379 5.64893 8.34473 5.6958 8.55566C5.74268 8.7666 5.78955 8.93066 5.83643 9.04785L5.87158 9.18848C5.28564 11.626 4.9458 13.0557 4.85205 13.4775C4.71143 14.04 4.66455 14.6377 4.71143 15.2705C3.30518 14.6377 2.16846 13.6768 1.30127 12.3877C0.434082 11.0986 0.000488281 9.65723 0.000488281 8.06348C0.000488281 5.88379 0.762207 4.03223 2.28564 2.50879Z" fill="#A1A1A1"/>
</svg>
