<svg width="17" height="14" viewBox="0 0 17 14" fill="none" xmlns="http://www.w3.org/2000/svg">
<path d="M16.5942 1.93066C16.1724 2.58691 15.6099 3.17285 14.9067 3.68848V4.11035C14.9067 6.57129 14.0161 8.80957 12.2349 10.8252C10.4771 12.8174 8.1333 13.8135 5.20361 13.8135C3.32861 13.8135 1.59424 13.2979 0.000488281 12.2666C0.375488 12.3135 0.64502 12.3369 0.809082 12.3369C2.37939 12.3369 3.78564 11.8447 5.02783 10.8604C4.30127 10.8369 3.64502 10.6143 3.05908 10.1924C2.47314 9.74707 2.07471 9.18457 1.86377 8.50488C2.14502 8.55176 2.35596 8.5752 2.49658 8.5752C2.73096 8.5752 3.03564 8.52832 3.41064 8.43457C2.63721 8.27051 1.98096 7.88379 1.44189 7.27441C0.92627 6.6416 0.668457 5.91504 0.668457 5.09473V5.05957C1.18408 5.34082 1.69971 5.48145 2.21533 5.48145C1.20752 4.8252 0.703613 3.87598 0.703613 2.63379C0.703613 2.04785 0.855957 1.48535 1.16064 0.946289C2.96533 3.17285 5.29736 4.35645 8.15674 4.49707C8.10986 4.33301 8.08643 4.0752 8.08643 3.72363C8.08643 2.7627 8.41455 1.9541 9.0708 1.29785C9.72705 0.641602 10.5356 0.313477 11.4966 0.313477C12.4575 0.313477 13.2778 0.676758 13.9575 1.40332C14.6606 1.28613 15.3872 1.00488 16.1372 0.55957C15.9028 1.37988 15.3989 2.0127 14.6255 2.45801C15.3521 2.3877 16.0083 2.21191 16.5942 1.93066Z" fill="#A1A1A1"/>
</svg>
