<svg width="18" height="14" viewBox="0 0 18 14" fill="none" xmlns="http://www.w3.org/2000/svg">
<path d="M17.895 3.30176C17.9653 4.56738 18.0005 5.82129 18.0005 7.06348C18.0005 8.30566 17.9653 9.55957 17.895 10.8252C17.895 11.6221 17.6372 12.3018 17.1216 12.8643C16.6294 13.4033 16.02 13.6729 15.2935 13.6729C13.4888 13.7666 11.3911 13.8135 9.00049 13.8135C6.60986 13.8135 4.51221 13.7666 2.70752 13.6729C1.98096 13.6729 1.35986 13.4033 0.844238 12.8643C0.352051 12.3018 0.105957 11.6221 0.105957 10.8252C0.0356445 9.55957 0.000488281 8.30566 0.000488281 7.06348C0.000488281 6.24316 0.0473633 4.98926 0.141113 3.30176C0.141113 2.50488 0.387207 1.83691 0.879395 1.29785C1.37158 0.735352 1.98096 0.454102 2.70752 0.454102C4.41846 0.360352 6.41064 0.313477 8.68408 0.313477H9.00049H9.31689C11.5903 0.313477 13.5825 0.360352 15.2935 0.454102C16.02 0.454102 16.6294 0.735352 17.1216 1.29785C17.6372 1.83691 17.895 2.50488 17.895 3.30176ZM7.27783 10.5088L12.3755 7.06348L7.27783 3.58301V10.5088Z" fill="#A1A1A1"/>
</svg>
